<svg xmlns="http://www.w3.org/2000/svg"
     width="127"
     height="127"
     style="overflow: visible;"
     viewBox="0 0 127 127"
     data-svgdocument=""
     id="_3qcLrDpQ6JrxcWAie__xY"
     class="fl-svgdocument"
     x="0"
     y="0"
     xmlns:xlink="http://www.w3.org/1999/xlink" overflow="hidden">
    <defs id="_Mz_1Sy8Z-r4V5NhIO4399"
          transform="matrix(0.645370889586219, 0, 0, 0.645370889586219, -19.26109727282745, 186.82331293117332)"
    ></defs>
    <path id="_k08helhpR_Dlyy1GW_-pD"
          d="M88.09.74H42.29a11.42,11.42,0,0,0-11.41,11.4V31.86H11.06A10.57,10.57,0,0,0,.5,42.42V75A10.57,10.57,0,0,0,11.06,85.6h4.66V96.76A2.5,2.5,0,0,0,20,98.53l13-12.93H51.59A10.57,10.57,0,0,0,62.15,75V59.59H64L78.42,73.95a2.5,2.5,0,0,0,4.27-1.77V59.59h5.41A11.42,11.42,0,0,0,99.5,48.18v-36A11.42,11.42,0,0,0,88.09.74ZM57.15,75a5.57,5.57,0,0,1-5.56,5.56H31.91a2.5,2.5,0,0,0-1.77.73l-9.42,9.4V83.1a2.5,2.5,0,0,0-2.5-2.5H11.06A5.57,5.57,0,0,1,5.5,75V42.42a5.57,5.57,0,0,1,5.56-5.56H30.89V48.18A11.42,11.42,0,0,0,42.29,59.59H57.15ZM94.5,48.18a6.41,6.41,0,0,1-6.41,6.41H80.18a2.5,2.5,0,0,0-2.5,2.5v9.06L66.83,55.32a2.5,2.5,0,0,0-1.77-.73H42.29a6.41,6.41,0,0,1-6.41-6.41v-36a6.41,6.41,0,0,1,6.41-6.4h45.8a6.41,6.41,0,0,1,6.41,6.4Z"
          stroke="none" fill="#ffffff"
          transform="matrix(1.2747239253988554, 0, 0, 1.2747239253988554, 0.00005424933925778484, -0.3059337542524426)"
          stroke-width="1"></path>
    <path id="_SzOGutgdP9UB7Bpik8ioX"
          d="M45.002,13.514C32.973-12.474-8.937,1.357,1.718,35.105C7.436,51.887,19.058,59.327,45,78.039    c25.945-18.712,37.563-26.154,43.283-42.934C98.933,1.357,57.028-12.474,45.002,13.514z"
          stroke="none" fill="#d41717"
          transform="matrix(0.4164569857078413, 0, 0, 0.4164569857078413, 63.944427221879096, 23.55869259361438)"
          stroke-width="1"></path>
</svg>