<svg xmlns="http://www.w3.org/2000/svg" width="500" height="127" style="overflow: visible;" viewBox="0 0 500 127"
     data-svgdocument="" id="_3qcLrDpQ6JrxcWAie__xY" class="fl-svgdocument" x="0" y="0"
     xmlns:xlink="http://www.w3.org/1999/xlink" overflow="hidden">
    <defs id="_Mz_1Sy8Z-r4V5NhIO4399"
          transform="matrix(0.645370889586219, 0, 0, 0.645370889586219, -19.26109727282745, 186.82331293117332)"
    ></defs>
    <path
            transform="matrix(0.619017164665805, 0, 0, 0.619017164665805, 136.13609284991057, 67.92066389328313)"
            fill="#ffffff" id="_dbHH01i2xlTP3TKjYS3EL"
            d="M 26 0L 26 0L 10.5 0Q 8.6 0  7.75-0.85Q 6.9-1.7  6.9-3.6L 6.9-3.6L 6.9-68.4Q 6.9-70.3  7.75-71.15Q 8.6-72  10.5-72L 10.5-72L 26-72Q 27.9-72  28.75-71.15Q 29.6-70.3  29.6-68.4L 29.6-68.4L 29.6-46.7L 46.3-46.7L 46.3-68.4Q 46.3-70.3  47.15-71.15Q 48-72  49.9-72L 49.9-72L 65.4-72Q 67.3-72  68.15-71.15Q 69-70.3  69-68.4L 69-68.4L 69-3.6Q 69-1.7  68.15-0.85Q 67.3 0  65.4 0L 65.4 0L 49.9 0Q 48 0  47.15-0.85Q 46.3-1.7  46.3-3.6L 46.3-3.6L 46.3-25.8L 29.6-25.8L 29.6-3.6Q 29.6-1.7  28.75-0.85Q 27.9 0  26 0ZM 108.9-51L 108.9-51L 104.2-35.8L 119.9-35.8L 115.2-51Q 114.80000000000001-51.9  114.35000000000001-52.3Q 113.9-52.7  113.30000000000001-52.7L 113.30000000000001-52.7L 110.80000000000001-52.7Q 110.2-52.7  109.75-52.3Q 109.30000000000001-51.9  108.9-51ZM 103.2-17.6L 103.2-3.6Q 103.2-1.7  102.35000000000001-0.85Q 101.5 0  99.60000000000001 0L 99.60000000000001 0L 84.9 0Q 83 0  82.15-0.85Q 81.30000000000001-1.7  81.30000000000001-3.6L 81.30000000000001-3.6L 81.30000000000001-30Q 81.30000000000001-33  82.25-36.9Q 83.2-40.8  85.2-46L 85.2-46L 93.9-68.7Q 94.5-70.4  95.75-71.2Q 97-72  99-72L 99-72L 125.9-72Q 127.80000000000001-72  129.05-71.2Q 130.3-70.4  130.9-68.7L 130.9-68.7L 139.60000000000002-46Q 141.60000000000002-40.8  142.55-36.9Q 143.5-33  143.5-30L 143.5-30L 143.5-3.6Q 143.5-1.7  142.65-0.85Q 141.8 0  139.9 0L 139.9 0L 124.80000000000001 0Q 122.80000000000001 0  121.85000000000001-0.85Q 120.9-1.7  120.9-3.6L 120.9-3.6L 120.9-17.6L 103.2-17.6ZM 174.9 0L 174.9 0L 159.4 0Q 157.5 0  156.65-0.85Q 155.8-1.7  155.8-3.6L 155.8-3.6L 155.8-68.4Q 155.8-70.3  156.65-71.15Q 157.5-72  159.4-72L 159.4-72L 190-72Q 203.60000000000002-72  208.60000000000002-66.6Q 213.60000000000002-61.2  213.60000000000002-52.5L 213.60000000000002-52.5L 213.60000000000002-39.7Q 213.60000000000002-31  208.60000000000002-25.6Q 203.60000000000002-20.2  190-20.2L 190-20.2L 178.5-20.2L 178.5-3.6Q 178.5-1.7  177.65-0.85Q 176.8 0  174.9 0ZM 187.3-53.3L 178.3-53.3L 178.3-38.2L 187.3-38.2Q 190.2-38.2  191.10000000000002-39.7Q 192-41.2  192-43.1L 192-43.1L 192-48.4Q 192-50.3  191.10000000000002-51.8Q 190.2-53.3  187.3-53.3L 187.3-53.3ZM 243.10000000000002 0L 243.10000000000002 0L 227.60000000000002 0Q 225.70000000000002 0  224.85000000000002-0.85Q 224.00000000000003-1.7  224.00000000000003-3.6L 224.00000000000003-3.6L 224.00000000000003-68.4Q 224.00000000000003-70.3  224.85000000000002-71.15Q 225.70000000000002-72  227.60000000000002-72L 227.60000000000002-72L 258.20000000000005-72Q 271.8-72  276.8-66.6Q 281.8-61.2  281.8-52.5L 281.8-52.5L 281.8-39.7Q 281.8-31  276.8-25.6Q 271.8-20.2  258.20000000000005-20.2L 258.20000000000005-20.2L 246.70000000000002-20.2L 246.70000000000002-3.6Q 246.70000000000002-1.7  245.85000000000002-0.85Q 245.00000000000003 0  243.10000000000002 0ZM 255.50000000000003-53.3L 246.50000000000003-53.3L 246.50000000000003-38.2L 255.50000000000003-38.2Q 258.40000000000003-38.2  259.3-39.7Q 260.20000000000005-41.2  260.20000000000005-43.1L 260.20000000000005-43.1L 260.20000000000005-48.4Q 260.20000000000005-50.3  259.3-51.8Q 258.40000000000003-53.3  255.50000000000003-53.3L 255.50000000000003-53.3ZM 328.7 0L 328.7 0L 312.5 0Q 310.6 0  309.75-0.85Q 308.90000000000003-1.7  308.90000000000003-3.6L 308.90000000000003-3.6L 308.90000000000003-16.4L 293.6-36.9Q 291.3-40  290.55-42.3Q 289.8-44.6  289.8-49.2L 289.8-49.2L 289.8-68.4Q 289.8-70.3  290.65000000000003-71.15Q 291.5-72  293.40000000000003-72L 293.40000000000003-72L 308.8-72Q 310.7-72  311.55-71.15Q 312.40000000000003-70.3  312.40000000000003-68.4L 312.40000000000003-68.4L 312.40000000000003-52Q 312.40000000000003-51  312.5-49.9Q 312.6-48.8  313.3-47.8L 313.3-47.8L 317.90000000000003-40.6Q 318.40000000000003-39.7  318.95-39.3Q 319.5-38.9  320.3-38.9L 320.3-38.9L 321.3-38.9Q 322.1-38.9  322.65000000000003-39.3Q 323.2-39.7  323.7-40.6L 323.7-40.6L 328.3-47.8Q 329-48.8  329.1-49.9Q 329.2-51  329.2-52L 329.2-52L 329.2-68.4Q 329.2-70.3  330.05-71.15Q 330.90000000000003-72  332.8-72L 332.8-72L 347.7-72Q 349.6-72  350.45000000000005-71.15Q 351.3-70.3  351.3-68.4L 351.3-68.4L 351.3-49.2Q 351.3-44.6  350.5-42.3Q 349.70000000000005-40  347.5-36.9L 347.5-36.9L 332.3-16.3L 332.3-3.6Q 332.3-1.7  331.45-0.85Q 330.6 0  328.7 0ZM 434.2 0L 434.2 0L 387.8 0Q 385.90000000000003 0  385.05-0.85Q 384.2-1.7  384.2-3.6L 384.2-3.6L 384.2-68.4Q 384.2-70.3  385.05-71.15Q 385.90000000000003-72  387.8-72L 387.8-72L 434.2-72Q 436.1-72  436.95-71.15Q 437.8-70.3  437.8-68.4L 437.8-68.4L 437.8-56.7Q 437.8-54.8  436.95-53.95Q 436.1-53.1  434.2-53.1L 434.2-53.1L 406.6-53.1L 406.6-45.4L 426.1-45.4Q 428-45.4  428.85-44.55Q 429.7-43.7  429.7-41.8L 429.7-41.8L 429.7-31.1Q 429.7-29.2  428.85-28.35Q 428-27.5  426.1-27.5L 426.1-27.5L 406.6-27.5L 406.6-18.9L 434.2-18.9Q 436.1-18.9  436.95-18.05Q 437.8-17.2  437.8-15.3L 437.8-15.3L 437.8-3.6Q 437.8-1.7  436.95-0.85Q 436.1 0  434.2 0ZM 468.20000000000005 0L 468.20000000000005 0L 453.20000000000005 0Q 451.30000000000007 0  450.45000000000005-0.85Q 449.6-1.7  449.6-3.6L 449.6-3.6L 449.6-68.4Q 449.6-70.3  450.45000000000005-71.15Q 451.30000000000007-72  453.20000000000005-72L 453.20000000000005-72L 463.6-72Q 465.50000000000006-72  466.85-71.4Q 468.20000000000005-70.8  469.50000000000006-69.3L 469.50000000000006-69.3L 488.90000000000003-47.1L 488.90000000000003-68.4Q 488.90000000000003-70.3  489.75000000000006-71.15Q 490.6-72  492.50000000000006-72L 492.50000000000006-72L 507.50000000000006-72Q 509.40000000000003-72  510.25000000000006-71.15Q 511.1-70.3  511.1-68.4L 511.1-68.4L 511.1-3.6Q 511.1-1.7  510.25000000000006-0.85Q 509.40000000000003 0  507.50000000000006 0L 507.50000000000006 0L 492.50000000000006 0Q 490.6 0  489.75000000000006-0.85Q 488.90000000000003-1.7  488.90000000000003-3.6L 488.90000000000003-3.6L 488.90000000000003-15.9L 471.80000000000007-36.6L 471.80000000000007-3.6Q 471.80000000000007-1.7  470.95000000000005-0.85Q 470.1 0  468.20000000000005 0ZM 562.2 0L 562.2 0L 528.5 0Q 526.6 0  525.75-0.85Q 524.9-1.7  524.9-3.6L 524.9-3.6L 524.9-68.4Q 524.9-70.3  525.75-71.15Q 526.6-72  528.5-72L 528.5-72L 562.2-72Q 574.7-72  580.75-67Q 586.8-62  586.8-51.6L 586.8-51.6L 586.8-20.4Q 586.8-10  580.75-5Q 574.7 0  562.2 0ZM 559.5-52.9L 547.6-52.9L 547.6-18.9L 559.5-18.9Q 561.9-18.9  563.05-20.1Q 564.2-21.3  564.2-23.8L 564.2-23.8L 564.2-48.1Q 564.2-50.6  563.05-51.75Q 561.9-52.9  559.5-52.9L 559.5-52.9Z"></path>
    <path
            transform="matrix(0.619017164665805, 0, 0, 0.619017164665805, 136.1357476477483, 122.08235844871317)"
            fill="#d41717" id="_LT9703mBXXvD2CqRzN1-_"
            d="M 25.4 0L 25.4 0L 10.5 0Q 8.6 0  7.75-0.85Q 6.9-1.7  6.9-3.6L 6.9-3.6L 6.9-68.4Q 6.9-70.3  7.75-71.15Q 8.6-72  10.5-72L 10.5-72L 26.6-72Q 28.2-72  29.25-71.3Q 30.3-70.6  31.2-69L 31.2-69L 40.2-52.7Q 40.7-51.8  41.05-51.4Q 41.4-51  42-51L 42-51L 42.9-51Q 43.5-51  43.85-51.4Q 44.2-51.8  44.7-52.7L 44.7-52.7L 53.6-69Q 54.5-70.6  55.55-71.3Q 56.6-72  58.2-72L 58.2-72L 74.4-72Q 76.3-72  77.15-71.15Q 78-70.3  78-68.4L 78-68.4L 78-3.6Q 78-1.7  77.15-0.85Q 76.3 0  74.4 0L 74.4 0L 59 0Q 57.1 0  56.25-0.85Q 55.4-1.7  55.4-3.6L 55.4-3.6L 55.4-38.8L 49.5-27.9Q 48.6-26.2  47.35-25.45Q 46.1-24.7  44.2-24.7L 44.2-24.7L 40.2-24.7Q 38.3-24.7  37.05-25.45Q 35.8-26.2  34.9-27.9L 34.9-27.9L 29-38.8L 29-3.6Q 29-1.7  28.15-0.85Q 27.3 0  25.4 0ZM 152.8-53L 152.8-18.9Q 152.8-14.3  151.45-10.55Q 150.10000000000002-6.8  146.65-4.15Q 143.2-1.5  137.15 0Q 131.10000000000002 1.5  121.80000000000001 1.5L 121.80000000000001 1.5Q 112.5 1.5  106.4 0Q 100.30000000000001-1.5  96.85000000000001-4.15Q 93.4-6.8  92.05000000000001-10.55Q 90.7-14.3  90.7-18.9L 90.7-18.9L 90.7-53Q 90.7-57.6  92.05000000000001-61.35Q 93.4-65.1  96.85000000000001-67.8Q 100.30000000000001-70.5  106.4-72Q 112.5-73.5  121.80000000000001-73.5L 121.80000000000001-73.5Q 131.10000000000002-73.5  137.15-72Q 143.2-70.5  146.65-67.8Q 150.10000000000002-65.1  151.45-61.35Q 152.8-57.6  152.8-53L 152.8-53ZM 113.4-49.4L 113.4-22.5Q 113.4-20.5  114.9-19.15Q 116.4-17.8  121.80000000000001-17.8L 121.80000000000001-17.8Q 127.2-17.8  128.7-19.15Q 130.2-20.5  130.2-22.5L 130.2-22.5L 130.2-49.4Q 130.2-51.3  128.7-52.65Q 127.2-54  121.80000000000001-54L 121.80000000000001-54Q 116.4-54  114.9-52.65Q 113.4-51.3  113.4-49.4L 113.4-49.4ZM 208.10000000000002 0L 208.10000000000002 0L 182.10000000000002 0Q 180.20000000000002 0  178.95000000000002-0.7Q 177.70000000000002-1.4  177.00000000000003-3.3L 177.00000000000003-3.3L 167.20000000000002-27.8Q 166.3-30  165.70000000000002-31.65Q 165.10000000000002-33.3  164.70000000000002-34.8Q 164.3-36.3  164.15000000000003-37.95Q 164.00000000000003-39.6  164.00000000000003-42L 164.00000000000003-42L 164.00000000000003-68.4Q 164.00000000000003-70.3  164.85000000000002-71.15Q 165.70000000000002-72  167.60000000000002-72L 167.60000000000002-72L 183.50000000000003-72Q 185.40000000000003-72  186.40000000000003-71.15Q 187.40000000000003-70.3  187.40000000000003-68.4L 187.40000000000003-68.4L 187.40000000000003-40.8Q 187.40000000000003-39.8  187.60000000000002-38.8Q 187.8-37.8  188.20000000000002-36.7L 188.20000000000002-36.7L 192.90000000000003-22.7Q 193.20000000000002-21.7  193.60000000000002-21.35Q 194.00000000000003-21  194.8-21L 194.8-21L 195.90000000000003-21Q 196.70000000000002-21  197.10000000000002-21.35Q 197.50000000000003-21.7  197.8-22.7L 197.8-22.7L 202.50000000000003-36.8Q 202.90000000000003-37.9  203.10000000000002-38.9Q 203.3-39.9  203.3-40.9L 203.3-40.9L 203.3-68.4Q 203.3-70.3  204.15000000000003-71.15Q 205.00000000000003-72  206.90000000000003-72L 206.90000000000003-72L 222.60000000000002-72Q 224.50000000000003-72  225.35000000000002-71.15Q 226.20000000000002-70.3  226.20000000000002-68.4L 226.20000000000002-68.4L 226.20000000000002-42Q 226.20000000000002-39.6  226.05-37.95Q 225.90000000000003-36.3  225.50000000000003-34.8Q 225.10000000000002-33.3  224.50000000000003-31.65Q 223.90000000000003-30  223.00000000000003-27.8L 223.00000000000003-27.8L 213.20000000000002-3.3Q 212.50000000000003-1.4  211.25000000000003-0.7Q 210.00000000000003 0  208.10000000000002 0ZM 283.1 0L 240.50000000000003 0Q 238.60000000000002 0  237.75000000000003-0.85Q 236.90000000000003-1.7  236.90000000000003-3.6L 236.90000000000003-3.6L 236.90000000000003-15.5Q 236.90000000000003-17.4  237.75000000000003-18.25Q 238.60000000000002-19.1  240.50000000000003-19.1L 240.50000000000003-19.1L 250.40000000000003-19.1L 250.40000000000003-52.7L 240.50000000000003-52.7Q 238.60000000000002-52.7  237.75000000000003-53.55Q 236.90000000000003-54.4  236.90000000000003-56.3L 236.90000000000003-56.3L 236.90000000000003-68.4Q 236.90000000000003-70.3  237.75000000000003-71.15Q 238.60000000000002-72  240.50000000000003-72L 240.50000000000003-72L 283.1-72Q 285-72  285.85-71.15Q 286.70000000000005-70.3  286.70000000000005-68.4L 286.70000000000005-68.4L 286.70000000000005-56.3Q 286.70000000000005-54.4  285.85-53.55Q 285-52.7  283.1-52.7L 283.1-52.7L 273.40000000000003-52.7L 273.40000000000003-19.1L 283.1-19.1Q 285-19.1  285.85-18.25Q 286.70000000000005-17.4  286.70000000000005-15.5L 286.70000000000005-15.5L 286.70000000000005-3.6Q 286.70000000000005-1.7  285.85-0.85Q 285 0  283.1 0L 283.1 0ZM 349 0L 349 0L 302.6 0Q 300.70000000000005 0  299.85-0.85Q 299-1.7  299-3.6L 299-3.6L 299-68.4Q 299-70.3  299.85-71.15Q 300.70000000000005-72  302.6-72L 302.6-72L 349-72Q 350.90000000000003-72  351.75-71.15Q 352.6-70.3  352.6-68.4L 352.6-68.4L 352.6-56.7Q 352.6-54.8  351.75-53.95Q 350.90000000000003-53.1  349-53.1L 349-53.1L 321.40000000000003-53.1L 321.40000000000003-45.4L 340.90000000000003-45.4Q 342.8-45.4  343.65000000000003-44.55Q 344.5-43.7  344.5-41.8L 344.5-41.8L 344.5-31.1Q 344.5-29.2  343.65000000000003-28.35Q 342.8-27.5  340.90000000000003-27.5L 340.90000000000003-27.5L 321.40000000000003-27.5L 321.40000000000003-18.9L 349-18.9Q 350.90000000000003-18.9  351.75-18.05Q 352.6-17.2  352.6-15.3L 352.6-15.3L 352.6-3.6Q 352.6-1.7  351.75-0.85Q 350.90000000000003 0  349 0ZM 397.8 0L 397.8 0L 366.2 0Q 364.3 0  363.45-0.85Q 362.6-1.7  362.6-3.6L 362.6-3.6L 362.6-15.3Q 362.6-17.2  363.45-18.05Q 364.3-18.9  366.2-18.9L 366.2-18.9L 393.1-18.9Q 394.4-18.9  395.05-19.75Q 395.7-20.6  395.7-21.8L 395.7-21.8Q 395.7-23.5  395.05-24.3Q 394.4-25.1  393.1-25.2L 393.1-25.2L 378.1-27.3Q 371.1-28.3  366.85-31.9Q 362.6-35.5  362.6-43.9L 362.6-43.9L 362.6-54.4Q 362.6-62.9  368.1-67.45Q 373.6-72  383.3-72L 383.3-72L 411.3-72Q 413.2-72  414.05-71.15Q 414.9-70.3  414.9-68.4L 414.9-68.4L 414.9-56.5Q 414.9-54.6  414.05-53.75Q 413.2-52.9  411.3-52.9L 411.3-52.9L 388-52.9Q 386.7-52.9  386-52.05Q 385.3-51.2  385.3-49.9L 385.3-49.9Q 385.3-48.6  386-47.7Q 386.7-46.8  388-46.7L 388-46.7L 402.9-44.7Q 409.9-43.7  414.2-40.1Q 418.5-36.5  418.5-28.1L 418.5-28.1L 418.5-17.6Q 418.5-9.1  412.95-4.55Q 407.4 0  397.8 0Z"></path>
    <path id="_k08helhpR_Dlyy1GW_-pD"
          d="M88.09.74H42.29a11.42,11.42,0,0,0-11.41,11.4V31.86H11.06A10.57,10.57,0,0,0,.5,42.42V75A10.57,10.57,0,0,0,11.06,85.6h4.66V96.76A2.5,2.5,0,0,0,20,98.53l13-12.93H51.59A10.57,10.57,0,0,0,62.15,75V59.59H64L78.42,73.95a2.5,2.5,0,0,0,4.27-1.77V59.59h5.41A11.42,11.42,0,0,0,99.5,48.18v-36A11.42,11.42,0,0,0,88.09.74ZM57.15,75a5.57,5.57,0,0,1-5.56,5.56H31.91a2.5,2.5,0,0,0-1.77.73l-9.42,9.4V83.1a2.5,2.5,0,0,0-2.5-2.5H11.06A5.57,5.57,0,0,1,5.5,75V42.42a5.57,5.57,0,0,1,5.56-5.56H30.89V48.18A11.42,11.42,0,0,0,42.29,59.59H57.15ZM94.5,48.18a6.41,6.41,0,0,1-6.41,6.41H80.18a2.5,2.5,0,0,0-2.5,2.5v9.06L66.83,55.32a2.5,2.5,0,0,0-1.77-.73H42.29a6.41,6.41,0,0,1-6.41-6.41v-36a6.41,6.41,0,0,1,6.41-6.4h45.8a6.41,6.41,0,0,1,6.41,6.4Z"
          stroke="none" fill="#ffffff"
          transform="matrix(1.2747239253988554, 0, 0, 1.2747239253988554, 0.00005424933925778484, -0.3059337542524426)"
          stroke-width="1"></path>
    <path id="_SzOGutgdP9UB7Bpik8ioX"
          d="M45.002,13.514C32.973-12.474-8.937,1.357,1.718,35.105C7.436,51.887,19.058,59.327,45,78.039    c25.945-18.712,37.563-26.154,43.283-42.934C98.933,1.357,57.028-12.474,45.002,13.514z"
          stroke="none" fill="#d41717"
          transform="matrix(0.4164569857078413, 0, 0, 0.4164569857078413, 63.944427221879096, 23.55869259361438)"
          stroke-width="1"></path>
</svg>